<svg xmlns="http://www.w3.org/2000/svg" viewBox="0 0 1600 900">
  <rect width="1600" height="900" fill="#1b1714"/>
  <rect x="110" y="80" width="1380" height="740" rx="12" fill="#d8d0c3"/>
  <rect x="170" y="140" width="930" height="610" fill="#22201d"/>
  <rect x="215" y="185" width="840" height="520" fill="#817965"/>
  <path d="M215 185h840v520H215z" fill="none" stroke="#dbd2be" stroke-width="5"/>
  <g fill="#e5dcc9">
    <rect x="270" y="245" width="310" height="26"/>
    <rect x="270" y="300" width="670" height="10" opacity=".7"/>
    <rect x="270" y="330" width="620" height="10" opacity=".7"/>
    <rect x="270" y="360" width="500" height="10" opacity=".7"/>
    <rect x="270" y="430" width="260" height="160"/>
    <rect x="565" y="430" width="375" height="18"/>
    <rect x="565" y="468" width="340" height="10" opacity=".7"/>
    <rect x="565" y="498" width="295" height="10" opacity=".7"/>
    <rect x="565" y="528" width="330" height="10" opacity=".7"/>
  </g>
  <rect x="1160" y="145" width="250" height="315" fill="#f3eee4" transform="rotate(3 1285 302)"/>
  <g fill="#7b1e24">
    <rect x="1202" y="195" width="160" height="20" transform="rotate(3 1282 205)"/>
    <circle cx="1282" cy="335" r="70" fill="none" stroke="#7b1e24" stroke-width="13"/>
    <path d="M1224 335h116M1282 277v116" stroke="#7b1e24" stroke-width="10"/>
  </g>
  <rect x="1090" y="545" width="330" height="170" fill="#afa58f" transform="rotate(-4 1255 630)"/>
  <text x="1145" y="620" fill="#1b1714" font-size="31" font-family="monospace">CLAIM 0417</text>
  <text x="1145" y="665" fill="#7b1e24" font-size="22" font-family="monospace">REVIEW REQUIRED</text>
  <text x="120" y="858" fill="#e8e0d2" font-size="22" font-family="monospace">FRESH LI4 / DEEPER INVESTIGATION / DESKTOP VIEW</text>
</svg>
