<svg xmlns="http://www.w3.org/2000/svg" viewBox="0 0 1200 900"><rect width="1200" height="900" fill="#f1dcc1"/><rect x="45" y="45" width="1110" height="810" rx="18" fill="#fff8e9" stroke="#17110e" stroke-width="5"/><rect x="45" y="45" width="1110" height="70" rx="18" fill="#ef633b" stroke="#17110e" stroke-width="5"/><g fill="#17110e"><circle cx="90" cy="80" r="10"/><circle cx="125" cy="80" r="10"/><circle cx="160" cy="80" r="10"/></g><rect x="80" y="150" width="240" height="660" rx="14" fill="#f6ed63" stroke="#17110e" stroke-width="4"/><g fill="#fff8e9" stroke="#17110e" stroke-width="3"><rect x="105" y="190" width="85" height="85"/><rect x="210" y="190" width="85" height="85"/><rect x="105" y="300" width="85" height="85"/><rect x="210" y="300" width="85" height="85"/></g><g transform="translate(395 175)" fill="none" stroke="#17110e" stroke-width="18" stroke-linecap="round"><path d="M0 100h260v160h180V30h190v220"/><path d="M65 490h200V365h260v160h170"/></g><circle cx="1045" cy="680" r="52" fill="#ef633b" stroke="#17110e" stroke-width="6"/><text x="390" y="760" fill="#17110e" font-family="Arial Black" font-size="40">BUILD · TEST · SHARE</text></svg>
