<svg xmlns="http://www.w3.org/2000/svg" viewBox="0 0 1200 900">
<defs><linearGradient id="g" x1="0" y1="0" x2="1" y2="1"><stop stop-color="#090c21"/><stop offset="1" stop-color="#342369"/></linearGradient><linearGradient id="n" x1="0" y1="0" x2="1" y2="0"><stop stop-color="#55f6dd"/><stop offset="1" stop-color="#9758ff"/></linearGradient></defs>
<rect width="1200" height="900" fill="url(#g)"/><path d="M0 610 340 390l230 100 260-238 370 180v468H0Z" fill="#121836"/><path d="m0 720 310-210 250 130 245-210 395 165v305H0Z" fill="#1c2850"/>
<g fill="none" stroke="#55f6dd" opacity=".55"><path d="M77 597 350 430l213 104 243-210 318 144"/><path d="M98 651 362 494l201 102 247-194 301 137"/></g>
<g fill="#0c1025" stroke="#9758ff"><path d="M760 230h160v270H760z"/><path d="M184 370h146v310H184z"/><path d="M500 280h190v390H500z"/></g><g fill="#55f6dd"><path d="M790 265h100v12H790zM790 302h70v12h-70zM790 339h92v12h-92z"/><path d="M214 406h86v10h-86zM214 438h58v10h-58z"/></g>
<circle cx="582" cy="616" r="58" fill="url(#n)"/><path d="M560 684h44l28 106h-99z" fill="#0d1025" stroke="#55f6dd" stroke-width="6"/><path d="M557 592h49l20 56-44 28-46-28z" fill="#0d1025" stroke="#55f6dd" stroke-width="6"/>
<text x="60" y="100" fill="#f3efff" font-family="Arial Black,Arial" font-size="54" letter-spacing="4">NOCTROPOLIS / 2084</text><text x="60" y="145" fill="#55f6dd" font-family="Arial" font-size="18" letter-spacing="7">REBUILD · HUNT · REMEMBER</text>
</svg>
