<svg xmlns="http://www.w3.org/2000/svg" viewBox="0 0 1200 900"><rect width="1200" height="900" fill="#10142d"/><g stroke="#55f6dd" fill="none" opacity=".6"><path d="M0 170h1200M0 330h1200M0 490h1200M0 650h1200"/><path d="M180 0v900M390 0v900M600 0v900M810 0v900M1020 0v900"/></g><path d="M160 160h355v220H160zM685 160h355v220H685zM160 520h355v220H160zM685 520h355v220H685z" fill="#211b4c" stroke="#9758ff" stroke-width="5"/><g fill="#55f6dd"><circle cx="338" cy="270" r="58"/><circle cx="862" cy="270" r="58"/><circle cx="338" cy="630" r="58"/><circle cx="862" cy="630" r="58"/></g><text x="600" y="455" text-anchor="middle" fill="#f3efff" font-family="Arial Black" font-size="52">FOUR DISTRICTS / ONE SECRET</text></svg>
